# xmcd CD database file
#
# Track frame offsets:
#	150
#	11384
#	21417
#	32891
#	43919
#	56904
#	68522
#	80453
#	90953
#	100779
#	111848
#	123517
#	133685
#	143334
#	153962
#	167389
#	176178
#	180773
#	191004
#	203583
#
# Disc length: 2868 seconds
#
# Revision: 0
# Processed by: cddbd v1.5.2PL0 Copyright (c) Steve Scherf et al.
# Submitted via: CDex 1.70beta2
#
DISCID=fc0b3214
DTITLE=Tom Jones - Duets (Rareties)
DYEAR=2007
DGENRE=Blues
TTITLE0=Hot Legs
TTITLE1=Takin It To The Streets
TTITLE2=Guilty
TTITLE3=Don't Let Go
TTITLE4=The Girl From New York City
TTITLE5=We Can Work It Out
TTITLE6=Endless Love
TTITLE7=Nights On Broadway
TTITLE8=Upside Down
TTITLE9=The Closer I Get To Yo
TTITLE10=He's So Shy
TTITLE11=I'm Leaving It Up To Yo
TTITLE12=I Love The Nightlife
TTITLE13=I Get A Kick Out Of You  
TTITLE14=Too Much Too Little Too Late
TTITLE15=Something' Bout You Baby That Like
TTITLE16=Our Day Will Come
TTITLE17=Little Quennie
TTITLE18=Reunited
TTITLE19=Whenever I Call Your Friend
EXTD=YEAR: 2007
EXTT0=
EXTT1=
EXTT2=
EXTT3=
EXTT4=
EXTT5=
EXTT6=
EXTT7=
EXTT8=
EXTT9=
EXTT10=
EXTT11=
EXTT12=
EXTT13=
EXTT14=
EXTT15=
EXTT16=
EXTT17=
EXTT18=
EXTT19=
PLAYORDER=
